<?xml version="1.0" encoding="utf-8"?>
<!-- Derived from Font Awesome  -->
<!-- https://github.com/FortAwesome/Font-Awesome/#license  -->
<!DOCTYPE svg PUBLIC "-//W3C//DTD SVG 1.1//EN" "http://www.w3.org/Graphics/SVG/1.1/DTD/svg11.dtd">
<svg version="1.1" id="Layer_1" xmlns="http://www.w3.org/2000/svg" xmlns:xlink="http://www.w3.org/1999/xlink" x="0px" y="0px"
	 width="64px" height="64px" viewBox="0 0 64 64" enable-background="new 0 0 64 64" xml:space="preserve">
<g>
	<path d="M55,18.5c0,0.6-0.5,1-1,1h-3.1v31c0,3.6-2.4,6.7-5.2,6.7H18.4c-2.9,0-5.2-2.9-5.2-6.5V19.6H10c-0.6,0-1-0.5-1-1v-2.1
		c0-0.6,0.5-1,1-1h10.1l2.3-5.5C23.1,8.3,25,7,26.8,7h10.5c1.7,0,3.7,1.3,4.3,2.9l2.3,5.5H54c0.6,0,1,0.5,1,1V18.5z M46.6,19.6H17.4
		v31c0,1.6,0.9,2.5,1,2.5h27.2c0.2,0,1-0.9,1-2.5V19.6z M25.7,45.7c0,0.6-0.5,1-1,1h-2.1c-0.6,0-1-0.5-1-1V26.9c0-0.6,0.5-1,1-1h2.1
		c0.6,0,1,0.5,1,1V45.7z M39.3,15.4l-1.6-3.8c-0.1-0.1-0.4-0.3-0.6-0.4H26.8c-0.2,0-0.5,0.2-0.6,0.4l-1.6,3.8H39.3z M34.1,45.7
		c0,0.6-0.5,1-1,1H31c-0.6,0-1-0.5-1-1V26.9c0-0.6,0.5-1,1-1H33c0.6,0,1,0.5,1,1V45.7z M42.5,45.7c0,0.6-0.5,1-1,1h-2.1
		c-0.6,0-1-0.5-1-1V26.9c0-0.6,0.5-1,1-1h2.1c0.6,0,1,0.5,1,1V45.7z"/>
</g>
</svg>
