<?xml version="1.0" encoding="utf-8"?>
<!-- Derived from Font Awesome  -->
<!-- https://github.com/FortAwesome/Font-Awesome/#license  -->
<!DOCTYPE svg PUBLIC "-//W3C//DTD SVG 1.1//EN" "http://www.w3.org/Graphics/SVG/1.1/DTD/svg11.dtd">
<svg version="1.1" id="Layer_1" xmlns="http://www.w3.org/2000/svg" xmlns:xlink="http://www.w3.org/1999/xlink" x="0px" y="0px"
	 width="64px" height="64px" viewBox="0 0 64 64" enable-background="new 0 0 64 64" xml:space="preserve">
<g>
	<path d="M59.2,54.4c0,1.7-1.4,3.1-3.1,3.1H7.9c-1.7,0-3.1-1.4-3.1-3.1V44c0-1.7,1.4-3.1,3.1-3.1h15.2l4.4,4.4
		c1.2,1.2,2.8,1.8,4.4,1.8s3.2-0.7,4.4-1.8l4.4-4.4h15.2c1.7,0,3.1,1.4,3.1,3.1V54.4z M48.1,27.7L33.5,42.3
		c-0.4,0.4-0.9,0.6-1.5,0.6c-0.5,0-1.1-0.2-1.5-0.6L15.9,27.7c-0.6-0.6-0.8-1.5-0.5-2.3c0.3-0.8,1.1-1.3,1.9-1.3h8.4V9.4
		c0-1.1,0.9-2.1,2.1-2.1h8.4c1.1,0,2.1,0.9,2.1,2.1v14.6h8.4c0.8,0,1.6,0.5,1.9,1.3C48.9,26.2,48.7,27.1,48.1,27.7z M44.6,49.2
		c-1.1,0-2.1,0.9-2.1,2.1s0.9,2.1,2.1,2.1c1.1,0,2.1-0.9,2.1-2.1S45.7,49.2,44.6,49.2z M52.9,49.2c-1.1,0-2.1,0.9-2.1,2.1
		s0.9,2.1,2.1,2.1s2.1-0.9,2.1-2.1S54.1,49.2,52.9,49.2z"/>
</g>
</svg>
