<?xml version="1.0" encoding="utf-8"?>
<!-- Generator: Adobe Illustrator 15.0.2, SVG Export Plug-In . SVG Version: 6.00 Build 0)  -->
<!DOCTYPE svg PUBLIC "-//W3C//DTD SVG 1.1//EN" "http://www.w3.org/Graphics/SVG/1.1/DTD/svg11.dtd">
<svg version="1.1" id="Layer_1" xmlns="http://www.w3.org/2000/svg" xmlns:xlink="http://www.w3.org/1999/xlink" x="0px" y="0px"
	 width="65.162px" height="65.236px" viewBox="-0.25 -0.25 65.162 65.236" enable-background="new -0.25 -0.25 65.162 65.236"
	 xml:space="preserve">
<g>
	<path fill="#FFFFFF" stroke="#646464" stroke-miterlimit="10" d="M40.528,48.987c0,1.101-0.899,2-2,2H2.75c-1.1,0-2-0.899-2-2V2.75
		c0-1.101,0.9-2,2-2h35.778c1.101,0,2,0.899,2,2V48.987z"/>
	<path fill="none" stroke="#646464" stroke-width="2" stroke-miterlimit="10" d="M40.528,48.987c0,1.101-0.899,2-2,2H2.75
		c-1.1,0-2-0.899-2-2V2.75c0-1.101,0.9-2,2-2h35.778c1.101,0,2,0.899,2,2V48.987z"/>
</g>
<g>
	<line fill="none" stroke="#646464" stroke-width="2" stroke-miterlimit="10" x1="7.487" y1="8.889" x2="35.554" y2="8.889"/>
	<line fill="none" stroke="#646464" stroke-width="2" stroke-miterlimit="10" x1="7.487" y1="15.908" x2="35.554" y2="15.908"/>
	<line fill="none" stroke="#646464" stroke-width="2" stroke-miterlimit="10" x1="7.487" y1="22.928" x2="35.554" y2="22.928"/>
	<line fill="none" stroke="#646464" stroke-width="2" stroke-miterlimit="10" x1="7.487" y1="29.947" x2="35.554" y2="29.947"/>
	<line fill="none" stroke="#646464" stroke-width="2" stroke-miterlimit="10" x1="7.487" y1="36.967" x2="35.554" y2="36.967"/>
	<line fill="none" stroke="#646464" stroke-width="2" stroke-miterlimit="10" x1="7.487" y1="43.986" x2="35.554" y2="43.986"/>
</g>
<g>
	<path fill="#FFFFFF" stroke="#646464" stroke-miterlimit="10" d="M63.912,61.987c0,1.101-0.899,2-2,2H26.133c-1.1,0-2-0.899-2-2
		V15.75c0-1.101,0.9-2,2-2h35.779c1.101,0,2,0.899,2,2V61.987z"/>
	<path fill="none" stroke="#646464" stroke-width="2" stroke-miterlimit="10" d="M63.912,61.987c0,1.101-0.899,2-2,2H26.133
		c-1.1,0-2-0.899-2-2V15.75c0-1.101,0.9-2,2-2h35.779c1.101,0,2,0.899,2,2V61.987z"/>
</g>
<g>
	<line fill="none" stroke="#646464" stroke-width="2" stroke-miterlimit="10" x1="29.672" y1="20.681" x2="57.741" y2="20.681"/>
	<line fill="none" stroke="#646464" stroke-width="2" stroke-miterlimit="10" x1="29.672" y1="27.701" x2="57.741" y2="27.701"/>
	<line fill="none" stroke="#646464" stroke-width="2" stroke-miterlimit="10" x1="29.672" y1="34.72" x2="57.741" y2="34.72"/>
	<line fill="none" stroke="#646464" stroke-width="2" stroke-miterlimit="10" x1="29.672" y1="41.74" x2="57.741" y2="41.74"/>
	<line fill="none" stroke="#646464" stroke-width="2" stroke-miterlimit="10" x1="29.672" y1="48.76" x2="57.741" y2="48.76"/>
	<line fill="none" stroke="#646464" stroke-width="2" stroke-miterlimit="10" x1="29.672" y1="55.78" x2="57.741" y2="55.78"/>
</g>
</svg>
