<?xml version="1.0" encoding="utf-8"?>
<!-- Generator: Adobe Illustrator 15.0.2, SVG Export Plug-In . SVG Version: 6.00 Build 0)  -->
<!DOCTYPE svg PUBLIC "-//W3C//DTD SVG 1.1//EN" "http://www.w3.org/Graphics/SVG/1.1/DTD/svg11.dtd">
<svg version="1.1" id="Layer_1" xmlns="http://www.w3.org/2000/svg" xmlns:xlink="http://www.w3.org/1999/xlink" x="0px" y="0px"
	 width="225.051px" height="225.019px" viewBox="2.001 -0.999 225.051 225.019"
	 enable-background="new 2.001 -0.999 225.051 225.019" xml:space="preserve">
<path fill="#FFFFFF" stroke="#000000" stroke-width="4" stroke-miterlimit="10" d="M145.738,168.001c0,6.627-5.949,12-13.287,12
	H17.29c-7.338,0-13.288-5.373-13.288-12v-155c0-6.627,5.95-12,13.288-12h115.161c7.338,0,13.287,5.373,13.287,12V168.001z"/>
<g>
	<line fill="none" stroke="#000000" stroke-width="4" stroke-miterlimit="10" x1="26.004" y1="27.997" x2="126.009" y2="27.997"/>
	<line fill="none" stroke="#000000" stroke-width="4" stroke-miterlimit="10" x1="26.004" y1="53.009" x2="126.009" y2="53.009"/>
	<line fill="none" stroke="#000000" stroke-width="4" stroke-miterlimit="10" x1="26.004" y1="78.02" x2="126.009" y2="78.02"/>
	<line fill="none" stroke="#000000" stroke-width="4" stroke-miterlimit="10" x1="26.004" y1="103.033" x2="126.009" y2="103.033"/>
	<line fill="none" stroke="#000000" stroke-width="4" stroke-miterlimit="10" x1="26.004" y1="128.045" x2="126.009" y2="128.045"/>
	<line fill="none" stroke="#000000" stroke-width="4" stroke-miterlimit="10" x1="26.004" y1="153.058" x2="126.009" y2="153.058"/>
</g>
<path fill="#FFFFFF" stroke="#000000" stroke-width="4" stroke-miterlimit="10" d="M225.051,210.02c0,6.627-5.949,12-13.288,12
	H96.59c-7.343,0-13.292-5.373-13.292-12v-155c0-6.627,5.95-12,13.292-12h115.173c7.339,0,13.288,5.373,13.288,12V210.02z"/>
<g>
	<line fill="none" stroke="#000000" stroke-width="4" stroke-miterlimit="10" x1="105.052" y1="70.016" x2="205.063" y2="70.016"/>
	<line fill="none" stroke="#000000" stroke-width="4" stroke-miterlimit="10" x1="105.052" y1="95.028" x2="205.063" y2="95.028"/>
	<line fill="none" stroke="#000000" stroke-width="4" stroke-miterlimit="10" x1="105.052" y1="120.04" x2="205.063" y2="120.04"/>
	
		<line fill="none" stroke="#000000" stroke-width="4" stroke-miterlimit="10" x1="105.052" y1="145.052" x2="205.063" y2="145.052"/>
	
		<line fill="none" stroke="#000000" stroke-width="4" stroke-miterlimit="10" x1="105.052" y1="170.064" x2="205.063" y2="170.064"/>
	
		<line fill="none" stroke="#000000" stroke-width="4" stroke-miterlimit="10" x1="105.052" y1="195.077" x2="205.063" y2="195.077"/>
</g>
</svg>
