<?xml version="1.0" encoding="utf-8"?>
<!-- Generator: Adobe Illustrator 15.0.2, SVG Export Plug-In . SVG Version: 6.00 Build 0)  -->
<!DOCTYPE svg PUBLIC "-//W3C//DTD SVG 1.1//EN" "http://www.w3.org/Graphics/SVG/1.1/DTD/svg11.dtd">
<svg version="1.1" id="Layer_1" xmlns="http://www.w3.org/2000/svg" xmlns:xlink="http://www.w3.org/1999/xlink" x="0px" y="0px"
	 width="64.665px" height="52.826px" viewBox="0 0 64.665 52.826" enable-background="new 0 0 64.665 52.826" xml:space="preserve">
<g>
	<g>
		<path fill="#646464" stroke="#646565" stroke-miterlimit="10" d="M56.12,14.545l0.062,0.18c-0.481,0.519-1.071,0.93-1.681,1.32
			l-0.061-0.18l-0.18,0.06c-2.985-1.616-5.049-4.159-6.602-7.56c-0.008-0.018-0.189,0.153-0.238,0.12l-0.062-0.18
			c0,0,0.94-1.18,1.62-1.5l0.061,0.3l0.301-0.06c1.31,3.41,3.486,5.953,6.84,7.32L56.12,14.545z"/>
		<path fill="#646464" stroke="#646565" stroke-miterlimit="10" d="M5.08,50.785c0,0-3.074,1.14-4.58,1.434
			c0-0.12,2.163-3.235,2.163-3.235l1.546-1.287c0.248,0.871,1.287,1.799,1.956,2.25L5.08,50.785z"/>
		<g>
			<path fill="#646464" stroke="#646565" stroke-width="1.25" stroke-linecap="round" d="M49.04,7.105
				c0.482-0.814,1.326-1.404,2.131-1.83"/>
			<path fill="#646464" stroke="#646565" stroke-width="1.25" stroke-linecap="round" d="M51.17,5.275
				c1.899-1.666,3.721-3.946,6.27-4.65"/>
			<path fill="#646464" stroke="#646565" stroke-width="1.25" stroke-linecap="round" d="M57.44,0.625c0.721,0,1.439,0,2.16,0"/>
			<path fill="#646464" stroke="#646565" stroke-width="1.25" stroke-linecap="round" d="M59.6,0.625
				c2.059,0.517,3.757,2.213,4.439,4.2"/>
			<path fill="#646464" stroke="#646565" stroke-width="1.25" stroke-linecap="round" d="M57.95,13.015
				c-0.394,0.67-1.172,1.141-1.83,1.53"/>
			<path fill="#646464" stroke="#646565" stroke-width="1.25" stroke-linecap="round" d="M13.28,48.024
				c-2.848,1.156-5.699,1.973-8.64,2.761"/>
			<path fill="#646464" stroke="#646565" stroke-width="1.25" stroke-linecap="round" d="M2.92,48.865
				c1.574-2.587,3.215-5.185,5.17-7.47"/>
			<path fill="#646464" stroke="#646565" stroke-width="1.25" stroke-linecap="round" d="M8.09,41.396
				C20.428,30.408,33.422,20.002,46.25,9.355"/>
			<path fill="#646464" stroke="#646565" stroke-width="1.25" stroke-linecap="round" d="M46.25,9.355
				c0.229-0.495,0.715-0.725,1.109-1.05"/>
			<path fill="#FFFFFF" stroke="#646565" stroke-width="1.25" stroke-linecap="round" d="M51.17,5.275
				c0.279,3.676,3.604,6.306,6.779,7.74"/>
			<path fill="#FFFFFF" stroke="#646565" stroke-width="1.25" stroke-linecap="round" d="M57.95,13.015
				c2.166-1.79,5.691-3.104,6.09-6.27"/>
			<path fill="#646464" stroke="#646565" stroke-width="1.25" stroke-linecap="round" d="M64.04,6.745c0-0.64,0-1.28,0-1.92"/>
			<path fill="#646464" stroke="#646565" stroke-width="1.25" stroke-linecap="round" d="M46.25,9.355
				c0.231,1.104,0.748,2.059,1.17,3.09"/>
			<path fill="#646464" stroke="#646565" stroke-width="1.25" stroke-linecap="round" d="M47.42,12.445
				c0.752,0.872,1.562,1.754,2.25,2.67"/>
			<path fill="#646464" stroke="#646565" stroke-width="1.25" stroke-linecap="round" d="M49.67,15.115
				c1.088,0.641,2.179,1.299,3.281,1.902"/>
			<path fill="#646464" stroke="#646565" stroke-width="1.25" stroke-linecap="round" d="M52.952,17.017
				c0.613-0.196,1.098-0.66,1.488-1.152"/>
			<path fill="#FFFFFF" stroke="#646565" stroke-width="1.25" stroke-linecap="round" d="M8.09,41.396
				c0.261,0.391-0.132,1,0.278,1.312c0.623,0.181,1.269,0.167,1.912,0.157"/>
			<path fill="#646464" stroke="#646565" stroke-width="1.25" stroke-linecap="round" d="M10.28,42.865
				C22.714,32.8,35.045,22.535,47.42,12.445"/>
			<path fill="#FFFFFF" stroke="#646565" stroke-width="1.25" stroke-linecap="round" d="M10.28,42.865
				c-0.222,1.651,0.547,2.594,2.25,2.43"/>
			<path fill="#646464" stroke="#646565" stroke-width="1.25" stroke-linecap="round" d="M12.53,45.294
				c12.296-10.077,24.816-20.196,37.141-30.18"/>
			<path fill="#FFFFFF" stroke="#646565" stroke-width="1.25" stroke-linecap="round" d="M12.53,45.294
				c0.284,0.689-0.16,1.402-0.027,2.105c0.039,0.058,0.092,0.115,0.135,0.17c0.26,0.084,0.489,0.209,0.642,0.455"/>
			<path fill="#646464" stroke="#646565" stroke-width="1.25" stroke-linecap="round" d="M13.28,48.024
				c1.494-0.068,2.453-1.252,3.438-2.063c8.066-6.659,18.174-14.507,27.001-21.481c3.085-2.438,6.787-5.235,9.232-7.462"/>
		</g>
	</g>
</g>
<path fill="#464547" stroke="#646565" stroke-miterlimit="10" d="M92.081,70.151"/>
</svg>
