<?xml version="1.0" encoding="utf-8"?>
<!-- Generator: Adobe Illustrator 15.0.2, SVG Export Plug-In . SVG Version: 6.00 Build 0)  -->
<!DOCTYPE svg PUBLIC "-//W3C//DTD SVG 1.1//EN" "http://www.w3.org/Graphics/SVG/1.1/DTD/svg11.dtd">
<svg version="1.1" id="Layer_1" xmlns="http://www.w3.org/2000/svg" xmlns:xlink="http://www.w3.org/1999/xlink" x="0px" y="0px"
	 width="61.921px" height="60.572px" viewBox="0 0 61.921 60.572" enable-background="new 0 0 61.921 60.572" xml:space="preserve">
<g>
	<g>
		<g>
			<g>
				<path fill="#EFC820" d="M39.274,18.173c0.45,1.004,1.704,1.982,2.787,2.175l18.877,3.353c1.083,0.192,1.305,0.957,0.493,1.7
					L47.928,37.755c-0.812,0.742-1.252,2.222-0.979,3.287l4.689,18.275c0.273,1.065-0.313,1.547-1.305,1.07l-17.895-8.615
					c-0.991-0.477-2.605-0.463-3.588,0.032l-16.988,8.551c-0.983,0.495-1.575,0.024-1.315-1.044l4.43-18.279
					c0.259-1.068-0.193-2.551-1.005-3.292L0.487,25.419c-0.812-0.742-0.586-1.479,0.502-1.637l18.082-2.627
					c1.088-0.158,2.339-1.112,2.78-2.12l7.991-18.277c0.441-1.008,1.169-1.011,1.62-0.007L39.274,18.173z"/>
			</g>
		</g>
	</g>
</g>
</svg>
